<?xml version="1.0" encoding="UTF-8"?>
<svg id="Camada_2" data-name="Camada 2" xmlns="http://www.w3.org/2000/svg" xmlns:xlink="http://www.w3.org/1999/xlink" viewBox="0 0 77.95 91.49">
  <defs>
    <style>
      .cls-1 {
        filter: url(#drop-shadow-1);
      }

      .cls-2 {
        fill: #ffb48f;
        stroke-width: 0px;
      }
    </style>
    <filter id="drop-shadow-1" filterUnits="userSpaceOnUse">
      <feOffset dx="0" dy="10"/>
      <feGaussianBlur result="blur" stdDeviation="10"/>
      <feFlood flood-color="#000" flood-opacity=".85"/>
      <feComposite in2="blur" operator="in"/>
      <feComposite in="SourceGraphic"/>
    </filter>
  </defs>
  <g id="Capa_1" data-name="Capa 1">
    <g class="cls-1">
      <path id="Lisbon" class="cls-2" d="M53.21,57.12l-.5-.83-.89,2.13-.15,2.24.78-.76.77-2.77ZM50.18,63.67l-.31.26-.68.57-1.24,1.34-1.1,2.07-.91,2.46.72.28,2.04-2.09,1.45-2.29.75-2.12-.08-.9-.64.41ZM44.84,67.06l3.38-3.93,6.09-12.2,5.33-7.7,2.11-4.04,1.44-1.21,9.49-1.05,4.91-3.64-.9-1.94-.45-.71-.47-.56-.72-.56-2.26-.93-.7-.52-3.19-2.93-.53-.88-.81-1.82-.75-.6-.91-.47-.52-.71v-.89s1.61-1.13,1.61-1.13l1.31-.42,3.28.16,1.73-.47,1.53-1.42-5.5-5.49-.88-2.08-4.42,1.34-7.61-2.22.21-2.12-1.32-3.36-3.09-.73-2.07-.94-1.59-.28-1.26.15-.75.35-1.1.75-2.33,2.79-2.57,4.45-2.18,2.62-2.32,1.89-1.77-1.7-2.51-8.59-.91-1.62-.82-1.16-.78-.45-.55.15-1.45-.24-.89.63-4.64,2.76h-4.24l-1.03.1.77,3.64-.68,4.49-.45,5.38-2.26,5.16-1.35,3.81-4.27,7.85-.45,3.81-1.1,3.15,1.24,5.35.29,8.52-3.6,11.43-2.68,2.78-1.32,1.63-.61,1.34v3.04l1.4,6.14-.72,2.39-.04,2.84,2.2.72,4.67-.68,2.68.45,4.86,2.05,4.27,2.7,2.01-2.45,2.01-1.56,7.15.68,6.25-1.09,5.58-1.76,1.57-3.34-.44-3.35-.22-4.69-.26-2.68.69-2.32,1.16-1.88ZM77.75,34.96h0s0,0,0,0l-3.98,3.02-2.09.9-4.72.4-2.2.54-3.83,2.98-2.85,4.42-4.67,9.97.98,3.33.64,3.43,1.15,2.28,2.55-.17-.79,2.15.66,2.91,1.28,2.81,1.1,1.86v.87l1.22-.36.93.05-.82-3.22-.45-.94-.41-.6-1.94-2.4.03-1.74,1.61-1.7.78-1.12,1.65-3.09,3.8-10.34,1.12-2.4,1.05-1.43.51-1.46,2.16-3.21-1.16-.94-.37-1.23,4.07-1.17,2.25-2.68.66-.41.25-.49-.19-.79ZM53.33,61.61l-.83.52-.66,1.94,1.02,1.07,1.54-.59.17-1.3-.58-1.12-.65-.52Z"/>
    </g>
  </g>
</svg>