<?xml version="1.0" encoding="UTF-8"?>
<svg id="Camada_2" data-name="Camada 2" xmlns="http://www.w3.org/2000/svg" xmlns:xlink="http://www.w3.org/1999/xlink" viewBox="0 0 423 798">
  <defs>
    <style>
      .cls-1 {
        fill: #aa9f9f;
        fill-rule: evenodd;
        filter: url(#drop-shadow-1);
        stroke-width: 0px;
      }
    </style>
    <filter id="drop-shadow-1" filterUnits="userSpaceOnUse">
      <feOffset dx="0" dy="10"/>
      <feGaussianBlur result="blur" stdDeviation="10"/>
      <feFlood flood-color="#000" flood-opacity=".85"/>
      <feComposite in2="blur" operator="in"/>
      <feComposite in="SourceGraphic"/>
    </filter>
  </defs>
  <g id="Capa_1" data-name="Capa 1">
    <polygon class="cls-1" points="391.64 104.78 390.1 102.6 385.46 97.7 380.53 94.48 375.16 92.5 366.24 90.64 364.73 90.59 363.97 91.25 363.24 92.15 361.74 93.2 360.09 94.04 358.95 94.36 355.86 93.19 354.34 90.84 353.77 87.96 353.49 85.22 352.98 83.83 352.25 82.57 351.91 81.29 352.56 79.89 353.34 78.67 353.81 77.28 356.49 65.23 357.76 62.45 354.92 61.5 352.96 61.2 352.09 60.17 352.99 53.79 352.54 51.34 351.06 49.56 348.38 48.43 346.92 51.59 343.18 52.75 335.35 53.08 332.06 52.09 328.05 45.86 324.69 45.26 324 49.67 321.39 51.29 314.56 51.86 311.48 51.23 308.8 49.11 307.26 48.33 306.28 47.83 303.71 49.71 299.81 51.43 296.35 49.84 293 46.94 289.46 44.71 287.88 44.97 285.95 46.06 284.27 47.35 283.46 48.22 283.22 50.29 283.93 55.07 283.68 57.42 282.43 59.24 281.4 60.74 277.8 63 269.99 65.7 268.01 66.03 264.01 65.9 262.35 66.2 260.87 67.21 258.22 70.26 256.77 71.52 256.3 69.18 255.24 66.61 253.83 64.65 252.31 64.11 251.24 64 249.57 62.82 248.73 62.81 247.91 63.52 247.69 64.41 247.57 65.41 247 66.48 245.33 67.67 243.09 68.48 240.75 68.83 238.81 68.63 237.03 67.63 236.96 66.24 238.66 61.6 232.75 61.35 230.82 60.4 227.78 58.19 226.05 57.75 222.96 59.36 216.15 61.02 213.17 60.83 212.01 61.22 211.5 62.03 211.12 62.99 210.36 63.86 206.86 63.85 206.12 59.59 205.82 55.59 203.65 56.43 203.13 58.13 202.6 60.6 201.57 62.52 199.52 62.57 197.75 62.28 196.19 63.01 194.84 64.44 193.76 66.22 190.15 69.98 189.94 70.04 185.21 71.41 175.75 70.82 175.78 70.54 176.21 67 176.02 65.05 175.2 63.88 171.26 62.34 170.01 59.7 170.18 56.95 171.22 54.28 175.46 47.97 178.67 44.81 181.87 42.72 183.61 41.24 184.79 39.38 185.04 36.8 184.14 34.6 182.47 32.96 180.36 32.06 178.08 32.29 176.12 33.2 174.46 33.67 173.06 32.56 172.69 30.16 173.02 23.78 172.03 21.52 171.04 20.1 167.75 22.48 165.73 23.31 163.84 23.39 163.01 23.59 162.03 24.22 159.21 26.8 157.36 27.8 140.38 30.55 138.31 31.35 134.53 33.96 132.51 34.8 128.48 34.91 126.56 35.3 124.69 36.72 123.74 38.2 122.57 41.39 121.73 42.88 119.48 44.39 116.65 45.26 114.17 46.54 112.94 47.44 111.62 52.92 107.9 57.15 100.11 63.68 99.31 65.09 98.85 66.65 99.61 70.84 98.7 77.48 98.7 81.71 100.81 86.5 102.81 87.76 104.23 87.93 106.77 87.59 118.95 83.9 117.42 85.39 115.67 86.68 113.76 87.59 107.01 88.72 104.55 89.67 104.17 91.32 104.38 94.77 105.28 97.43 105.35 99.24 105.38 100.11 106.11 102.53 106.61 105.83 108.03 110.3 108.33 112.75 108.82 114.82 109.02 117.86 110.29 121.19 110.27 121.31 109.11 126.1 109.31 130.32 109.31 132.12 109.93 134.24 111.48 136.89 111.89 138.41 112.35 139.93 113.12 140.33 113.63 141.75 113.62 146.24 114.12 148.06 114.72 149.66 114.97 151.29 114.44 153.23 116.5 157.35 117.95 162.4 120.09 166.41 124.2 167.39 124.2 168.28 122.25 170.31 122.14 175.45 123.44 185.23 123.45 187.24 123.46 190.57 112.94 240.07 114.3 238.43 115.76 235.31 116.95 231.97 117.44 229.63 117.71 225.98 118.46 221.96 119.64 218.17 121.2 215.21 121.76 217.14 122.57 216.6 123.25 214.62 123.44 212.24 124.51 215.33 120.31 221.22 121.2 225.22 121.99 226.39 124.53 227.52 125.13 227.47 125.56 227.24 127.9 226.76 130.67 225.34 132.52 225.22 130.8 226.87 129.09 228.09 127.12 228.83 124.58 229.09 122.52 229.79 122.22 231.36 123.2 233.08 124.95 234.13 123.62 236.59 122.69 237.65 121.6 238.09 121.07 237.68 120.64 236.91 120.02 236.48 118.95 237.1 118.65 237.93 118.92 238.89 119.36 239.7 119.62 240.07 119.62 240.98 118.95 240.98 117.39 240.03 115.81 241.32 113.62 245.01 113.69 244.03 113.62 240.98 112.99 241.41 112.7 241.86 111.29 250.3 109.19 256.92 108.86 258.92 108.86 258.92 107.68 265.94 100.34 294.66 97 301.39 95.6 305.43 95.81 308.49 96.92 310.6 98.8 311.82 103.83 312.48 105.75 313.22 107.41 314.46 109.18 316.15 109.18 317.22 104.77 317.03 102.95 316.18 101.67 314.27 100.03 316.34 96.26 327.47 86.3 356.76 77.65 380.04 76.97 385.46 75.6 389.29 75.82 392 75.59 394.48 73.33 398.53 72.2 400.78 70.62 403.48 67.46 405.49 65.43 406.84 64.53 408.41 62.04 411.33 60.26 414.22 62.06 415.95 62.89 417.82 61.61 419.14 60.48 418.82 59.11 417.18 56.86 417.4 54.83 419.19 46.73 424.58 41.79 423.15 40.53 423.55 41.36 424.97 45.31 429.12 46.6 431.93 47.32 435.31 48.09 438.95 47.41 443.44 46.96 448.82 44.7 453.98 43.35 457.79 39.08 465.65 38.63 469.46 37.53 472.6 38.77 477.96 39.06 486.48 35.45 497.91 32.77 500.69 31.45 502.32 30.84 503.66 30.84 506.69 32.24 512.83 31.52 515.22 31.47 518.06 33.67 518.79 38.35 518.11 41.03 518.56 45.89 520.61 50.16 523.31 52.17 520.86 54.18 519.31 61.33 519.99 67.58 518.9 73.17 517.13 74.73 513.8 74.29 510.45 74.08 505.76 73.82 503.09 74.51 500.77 75.68 498.88 79.06 494.95 85.15 482.75 90.48 475.05 92.59 471.01 94.03 469.8 103.52 468.75 108.43 465.11 108.44 465.11 111.36 462.94 110.31 464.96 108.59 466.78 108.59 466.78 104.61 469.8 102.52 470.7 97.81 471.1 95.6 471.64 91.78 474.62 88.93 479.05 84.27 489.02 85.25 492.35 85.89 495.78 87.04 498.06 89.59 497.88 88.8 500.03 89.47 502.94 90.75 505.75 91.85 507.61 91.85 508.48 91.35 508.67 90.71 509.23 90.28 509.53 86.34 512.96 83.21 515.39 81.42 517.17 79.78 519.15 79.78 520.02 78.14 520.21 74.67 521.16 73.01 522.04 73.69 524.92 73.01 524.92 71.89 523.22 69.59 521.8 64.9 522.23 59.76 522.89 57.75 523.99 59.32 528.23 62.66 533.57 65.33 540.03 65.32 546.69 64.64 551.13 61.35 554.43 60.55 555.64 60.13 556.02 59.83 556.9 59.81 557.91 60.18 558.69 60.67 558.73 63.51 559.56 65.51 559.12 67.29 557.79 69.52 556.91 80.19 555.6 86.43 552.96 85.56 552.29 90.5 546.55 95.89 545.53 100.11 547.01 103.98 549.09 106.17 549.68 108.8 549.89 109.72 548.8 109.7 546.51 108.56 544.47 106.11 544.13 106.11 543.26 108.3 542.55 110.46 538.09 112.18 538.37 111.46 539.95 111.79 541.92 112.86 543.56 114.44 544.13 114.44 545.18 113.49 545.86 112.93 547.18 112.75 548.96 112.94 550.93 113.57 552.85 114.55 554.03 122.62 557.87 125.47 558.48 128.77 558.69 123.26 560.48 112.26 557.48 107.68 557.65 107.51 555.82 105.12 554.5 100.11 552.77 96.03 549.18 93.53 548.14 91.85 549.89 94.92 551.09 98.92 554.41 102.38 558.49 105.22 561.48 108.07 567.03 109.13 574.78 109.95 583.64 110.34 591.16 107.86 598.67 105.8 608.61 100.11 620.96 99.24 621.83 98.38 622.23 97.63 622.73 97.1 623.9 101.6 626.72 105.25 627.42 107 630.96 107.64 634.27 107.84 638.9 107.38 641.42 106.47 646.37 105.66 653.45 106.57 655.87 109.28 655.84 111.72 655.19 112.78 654.25 112.78 654.77 112.18 658.12 109.04 658.69 107.6 659.39 106.62 662.94 106.11 666.74 104.61 672.86 104.85 674.67 106.3 676.42 107.38 678.62 108.02 681.91 107.76 688.25 107.08 691.97 106.69 693.82 106.69 693.82 105.77 698.18 103.86 702.79 103.28 706.15 100.2 709.63 98.43 713.12 99.29 715.3 100.15 717.71 98.58 723.82 96.02 726.48 94.03 728.35 95.04 732.46 93.57 735.74 91.94 739.52 87.65 746.33 87.12 747.15 86.52 749.06 85.77 752.92 87.42 752.21 88.61 752.96 89.81 754.17 91.47 754.79 92.62 754.36 94.82 752.49 95.97 752.06 96.87 751.36 98.85 749.37 101.02 750.26 103.44 748.08 106.02 747.39 107.68 747.27 109.12 746.62 111.96 744.82 113.28 744.45 120.03 744.45 123.51 740.68 124.95 739.65 126.57 739.18 131.7 738.79 136.39 739.64 142.25 742.9 142.46 742.68 147.24 744.48 152.03 743.87 155.32 742.38 159.49 743.84 163.25 745.17 172.08 743.9 175.79 743.74 179.28 745.33 183.77 746.33 191.61 750.71 195.57 754.05 198.04 757.7 197.9 756.52 197.54 755.64 196.46 753.93 197.51 754.49 198.92 755.36 200.1 755.51 201.04 753.93 202.92 754.7 209.71 754.79 212.03 755.27 213.74 756.02 215.33 756.05 218.95 752.75 235.61 741.35 236.47 740.17 242.88 735.97 244.72 735.31 249.17 732.2 251.55 731.27 253.91 731.02 256.44 731.12 258.79 731.75 260.62 733.15 261.44 732.12 261.44 731.27 260.76 731 260.43 730.55 260.2 729.97 259.88 729.3 258.23 723.23 257.7 720.11 258.43 718.01 257.35 713.48 256.52 702.49 254.62 698.18 254.86 696.63 254.54 693.58 253.89 690.19 253.11 687.61 252.5 686.76 250.62 685.19 249.77 684.3 248.86 682.88 248.77 682.74 248.54 681.93 248.44 680.99 247.87 679.09 247.43 679.11 247.27 678.95 247.2 677.5 247.56 676.94 248.73 675.59 248.86 674.9 249.09 674.28 249.17 673.6 248.89 672.75 249.93 672.05 252.83 668.93 253.59 667.82 254.17 665.73 255.14 659.04 256.62 654.86 258.57 652.02 268.68 643.49 271.7 638.08 272.92 633.33 275.33 626.83 275.91 624.36 275.86 622.94 275.52 621.61 275.46 620.49 276.22 619.66 279.71 618.94 280.89 618.14 282.32 618.25 283.72 618.68 285.07 618.86 286.44 618.14 287.88 617.72 288.7 617.19 289.84 615.66 290.93 612.76 291.89 611.69 293.8 611.88 300.02 614.46 302.81 614.13 303.71 610.74 304.75 609 305.71 604.77 307.76 600.53 309.24 595.86 310.1 593.79 311.22 589.8 310.88 589.56 309.38 588.47 306.31 588.73 303.45 589.61 303.13 589.58 302.54 589.38 301.19 591.26 298.51 592.47 295.73 593.06 294.06 593.03 292.57 591.62 291.49 590.61 287.06 579.24 286.49 578.62 284.61 577.22 283.86 576.43 283.38 575.56 282.67 573.69 282.2 572.87 270.57 557.86 267.45 555.56 265.95 554.8 267.53 553.12 268.59 551.56 268.71 549.94 267.44 548.09 268.52 546.45 270.51 539.36 275.11 532.67 275.71 530.72 275.37 529.64 274.72 529.14 273.99 528.72 273.45 527.84 273.28 526.72 273.23 525.29 273.45 522.08 274.21 517.27 274.58 516.25 275.52 514.38 275.71 513.85 280.61 509.81 282.19 508.51 283.85 507.86 285.68 506.32 287.17 504.55 287.78 503.21 288.84 502.31 293.92 501.2 295.69 500.33 297.03 498.93 298.38 497.82 299.28 497.25 299.15 495.23 299.71 493.04 298.18 490.26 300.55 488.28 303.01 484.86 306.69 477.66 307.77 476.24 308.38 474.8 308.21 473.52 306.95 472.52 307.71 470.1 307.02 467.33 305.48 464.79 303.71 463.07 301.18 461.32 298.31 460.52 295.41 460.85 292.78 462.46 291.45 462.97 289.77 462.69 288.16 461.85 287.03 460.71 286.88 459.52 288.08 456.75 288.31 455.32 286.97 452.61 284.38 451.4 281.33 450.59 278.6 449.06 277.07 446.84 276.22 443.99 276.38 441.01 277.86 438.41 272.41 431.7 270.34 430.04 269.53 428.37 269.01 425.34 268.95 422.19 269.52 420.19 270.39 418.14 270.96 414.88 270.97 411.85 270.16 410.42 265.54 409.19 263.2 408.06 261.53 406.69 260.48 403.56 259.53 402.33 255.82 400.39 253.98 398.62 250.7 394.23 248.73 392.41 245.16 382.5 244.32 380.5 244.17 380.13 267.9 381.26 269.4 380.84 271.2 380.05 273.26 379.63 277.64 379.77 279.52 379.17 281.91 380.64 285.34 380.8 301.51 378.78 303.12 378.1 304.39 375.03 304.27 373.98 303.94 373.01 303.98 371.68 304.48 370.33 305.8 367.99 306.21 366.63 306.04 365.43 305.57 364.12 305.42 362.58 306.21 360.64 307.07 359.91 309.59 358.86 310.63 358.24 313.4 354.08 313.77 352.69 313.86 350.29 314.05 349.03 314.07 348.31 313.68 346.86 313.67 346.05 313.99 345.4 315.06 344.59 315.39 344.03 316.04 340.49 316.47 339.21 316.26 337.65 316.78 336.12 318.67 332.96 314.25 324.96 311.81 321.87 310.31 319.49 309.14 318.43 307.96 317.98 305.04 317.57 303.71 317.17 302.4 315.22 301.61 310.31 300.71 308.21 301.64 306.53 302.72 303.19 303.71 301.85 305.69 300.96 310.43 297.84 311.81 297.61 312.55 297.48 314.7 297.69 316.83 297.54 318.85 296.13 319.18 295.27 319.24 294.12 319.31 292.88 319.72 291.76 320.4 290.98 325.15 287.47 326.12 286.46 328.05 282.99 324.35 279.49 321.8 275.32 321.15 270.61 323.18 265.54 325.75 261.88 326.06 260.13 325.45 257.63 324.3 255.66 323.06 254.35 322.11 252.87 321.89 250.35 322.55 248.09 325.09 243.4 325.86 240.94 325.87 239.18 325.65 236.59 324.76 231.73 323.37 227 323.13 224.93 323.13 222.12 323.34 220.69 323.64 219.89 323.75 219.08 323.39 217.56 323.25 216.6 323.41 212.92 325.2 212.34 325.66 210.51 325.11 208.58 323.91 207.73 322.26 207.3 321.36 206.09 320.44 203.02 318.07 197.11 316.52 194.51 313.08 190.83 312 189.18 311.77 187.34 312.94 185.43 313.38 182.68 313.42 182.66 315.69 181.49 322.46 182.1 325.46 181.78 326.96 180.28 331.31 173.8 332.22 171.14 331.95 167.54 332.36 166.5 333.79 164.66 337.67 161.32 338.29 160.13 339.12 157.95 343.03 152.03 344.3 150.6 346.25 150.26 353.44 150.15 354.43 149.43 360.88 146.6 362.39 145.43 364.47 143.8 368.01 140.15 371.46 134.52 371.91 134.38 373.26 134.65 373.71 134.52 373.98 133.71 374.11 132.56 374.04 131.68 373.71 131.61 375.13 130.46 376.66 129.86 380.09 129.6 380.1 128.34 384.29 121.59 384.34 120.61 384.04 119.63 383.96 118.47 384.66 116.99 387.51 113.97 392.75 106.22 391.64 104.78"/>
  </g>
</svg>